<svg xmlns="http://www.w3.org/2000/svg" viewBox="0 0 1343.54 179.38"><defs><style>.cls-1{fill:#2585b0;}</style></defs><title>logo</title><g id="Layer_2" data-name="Layer 2"><g id="Layer_1-2" data-name="Layer 1"><path class="cls-1" d="M331.46,1.4V102.54H313V40.43c0-1.3,0-2.69.1-4.18s.2-3,.39-4.53L284.55,86.57a7.77,7.77,0,0,1-7.32,4.54H274.3A7.78,7.78,0,0,1,267,86.57L237.92,31.51c.14,1.63.25,3.19.35,4.7s.14,2.92.14,4.22v62.11H219.93V1.4h15.9c.88,0,1.67,0,2.37.07a6.1,6.1,0,0,1,1.84.38,4.46,4.46,0,0,1,1.47,1,7.82,7.82,0,0,1,1.29,1.84l28.3,54c.88,1.63,1.7,3.29,2.47,5s1.5,3.47,2.2,5.3q1-2.79,2.19-5.44c.77-1.76,1.59-3.46,2.48-5.09L308.53,4.69a7,7,0,0,1,1.32-1.84,4.59,4.59,0,0,1,1.5-1,5.91,5.91,0,0,1,1.81-.38c.67,0,1.48-.07,2.41-.07Z"/><path class="cls-1" d="M457.27,51.93a55.58,55.58,0,0,1-3.73,20.56A48,48,0,0,1,443,88.87a48.62,48.62,0,0,1-16.35,10.82,59,59,0,0,1-42.38,0,49,49,0,0,1-16.38-10.84,48,48,0,0,1-10.56-16.38,58.48,58.48,0,0,1,0-41.09,48.19,48.19,0,0,1,10.56-16.32A49.3,49.3,0,0,1,384.29,4.22a59,59,0,0,1,42.38,0,47.67,47.67,0,0,1,26.87,27.25A55.06,55.06,0,0,1,457.27,51.93Zm-21.4,0a44.92,44.92,0,0,0-2.09-14.24,30.13,30.13,0,0,0-6-10.74,26,26,0,0,0-9.57-6.77,36,36,0,0,0-25.47,0,25.9,25.9,0,0,0-9.59,6.76,30.44,30.44,0,0,0-6,10.74,45.31,45.31,0,0,0-2.09,14.25,45.47,45.47,0,0,0,2.09,14.33,30.12,30.12,0,0,0,6,10.7,26.08,26.08,0,0,0,9.59,6.72,35.82,35.82,0,0,0,25.47,0A26.09,26.09,0,0,0,427.76,77a29.88,29.88,0,0,0,6-10.7A45.31,45.31,0,0,0,435.87,51.93Z"/><path class="cls-1" d="M591.1,1.4V102.54H572.63V40.43c0-1.3,0-2.69.1-4.18s.2-3,.39-4.53L544.21,86.57a7.77,7.77,0,0,1-7.32,4.54H534a7.78,7.78,0,0,1-7.32-4.54L497.58,31.51c.14,1.63.25,3.19.35,4.7s.14,2.92.14,4.22v62.11H479.58V1.4h15.89c.88,0,1.67,0,2.37.07a6.1,6.1,0,0,1,1.84.38,4.36,4.36,0,0,1,1.47,1,7.82,7.82,0,0,1,1.29,1.84l28.3,54c.88,1.63,1.7,3.29,2.47,5s1.5,3.47,2.2,5.3c.69-1.86,1.43-3.67,2.19-5.44s1.59-3.46,2.48-5.09L568.21,4.69a7.29,7.29,0,0,1,1.32-1.84,4.75,4.75,0,0,1,1.5-1,5.91,5.91,0,0,1,1.81-.38c.68,0,1.48-.07,2.41-.07Z"/><path class="cls-1" d="M640.21,17.78v26H674V59.6H640.21V86.16h43.35v16.38H619.21V1.4h64.4V17.78Z"/><path class="cls-1" d="M792.82,1.4V102.54H782a9.56,9.56,0,0,1-4.12-.8A9.89,9.89,0,0,1,774.63,99L724.21,34.86c.14,1.62.24,3.22.31,4.8s.11,3,.11,4.4v58.48H706.21V1.4h11a21.43,21.43,0,0,1,2.27.1,5,5,0,0,1,1.7.49,6.69,6.69,0,0,1,1.47,1,16.72,16.72,0,0,1,1.56,1.7L775,69.1c-.18-1.77-.32-3.47-.41-5.12s-.14-3.22-.14-4.71V1.4Z"/><path class="cls-1" d="M892.56,18.27H863v84.27H842V18.27H812.47V1.4h80.09Z"/><path class="cls-1" d="M1015.31,18.27H985.76v84.27h-21V18.27H935.21V1.4h80.09Z"/><path class="cls-1" d="M1129.69,51.93A55.58,55.58,0,0,1,1126,72.49a48,48,0,0,1-10.52,16.38,48.62,48.62,0,0,1-16.35,10.82,59,59,0,0,1-42.38,0,49,49,0,0,1-16.38-10.84,48,48,0,0,1-10.56-16.38,58.48,58.48,0,0,1,0-41.09A48,48,0,0,1,1040.33,15,49.3,49.3,0,0,1,1056.71,4.2a59,59,0,0,1,42.38,0A47.67,47.67,0,0,1,1126,31.45,55.17,55.17,0,0,1,1129.69,51.93Zm-21.4,0a44.91,44.91,0,0,0-2.08-14.24,30.13,30.13,0,0,0-6-10.74,26,26,0,0,0-9.55-6.76,36,36,0,0,0-25.47,0A25.9,25.9,0,0,0,1055.6,27a30.44,30.44,0,0,0-6,10.74,45.31,45.31,0,0,0-2.09,14.25,45.47,45.47,0,0,0,2.09,14.33,30.12,30.12,0,0,0,6,10.7,26.08,26.08,0,0,0,9.59,6.72,35.82,35.82,0,0,0,25.47,0,26.09,26.09,0,0,0,9.55-6.72,29.88,29.88,0,0,0,6-10.7A45.28,45.28,0,0,0,1108.29,51.93Z"/><path class="cls-1" d="M1193.4,85.81a23.22,23.22,0,0,0,9.13-1.71,18.74,18.74,0,0,0,6.83-4.84,21.21,21.21,0,0,0,4.25-7.6,32,32,0,0,0,1.47-10V1.4H1236V61.62a46.88,46.88,0,0,1-3,16.9,38.1,38.1,0,0,1-8.47,13.28,38.63,38.63,0,0,1-13.39,8.72,52.16,52.16,0,0,1-35.58,0,38.75,38.75,0,0,1-13.42-8.72,38.1,38.1,0,0,1-8.47-13.28,46.88,46.88,0,0,1-3-16.9V1.4h20.91V61.62a32,32,0,0,0,1.47,10,21.21,21.21,0,0,0,4.25,7.6,18.74,18.74,0,0,0,6.83,4.84A23.42,23.42,0,0,0,1193.4,85.81Z"/><path class="cls-1" d="M1343.54,102.54h-18.89q-5.3,0-7.67-4l-19.24-31a8.16,8.16,0,0,0-2.61-2.65,8.42,8.42,0,0,0-4.22-.84h-7.11V102.6h-20.91V1.4h31.79a65.57,65.57,0,0,1,18.12,2.19,35,35,0,0,1,12.34,6.1,23.56,23.56,0,0,1,7,9.31,31,31,0,0,1,2.23,11.88,31.35,31.35,0,0,1-1.43,9.52,28,28,0,0,1-4.15,8.19,29.91,29.91,0,0,1-6.69,6.55,34.69,34.69,0,0,1-9.06,4.6,20.72,20.72,0,0,1,3.76,2.68,18.39,18.39,0,0,1,3.14,3.73Zm-49-53.26a26.66,26.66,0,0,0,8.78-1.29,16.36,16.36,0,0,0,6.06-3.55,13.66,13.66,0,0,0,3.49-5.33,19.54,19.54,0,0,0,1.12-6.69q0-7.19-4.78-11.16t-14.53-4H1283.8v32Z"/><path class="cls-1" d="M235,141.17a24.7,24.7,0,0,1,6.35.71,12.05,12.05,0,0,1,4.33,2,7.73,7.73,0,0,1,2.47,3.16,10.7,10.7,0,0,1,.78,4.18,8.43,8.43,0,0,1-.39,2.55,7.46,7.46,0,0,1-1.21,2.28A9.53,9.53,0,0,1,245.2,158a13.23,13.23,0,0,1-3,1.46q7.78,1.75,7.79,8.42a10.77,10.77,0,0,1-.92,4.44,9.9,9.9,0,0,1-2.66,3.52,13,13,0,0,1-4.32,2.31,18.7,18.7,0,0,1-5.85.84H222v-37.8Zm-6,5.44v10.92h5.59a9.38,9.38,0,0,0,5.45-1.31,4.71,4.71,0,0,0,1.84-4.15c0-2-.55-3.37-1.67-4.21s-2.86-1.25-5.23-1.25Zm7.11,26.87a9.89,9.89,0,0,0,3.29-.47,5.76,5.76,0,0,0,2.13-1.26,4.52,4.52,0,0,0,1.15-1.83,6.74,6.74,0,0,0,.35-2.22,6,6,0,0,0-.39-2.21,4.07,4.07,0,0,0-1.23-1.67,5.85,5.85,0,0,0-2.15-1.06,12.19,12.19,0,0,0-3.18-.37H229v11.09Z"/><path class="cls-1" d="M305.28,160.07a20.81,20.81,0,0,1-1.38,7.69,17.85,17.85,0,0,1-3.88,6.13,17.36,17.36,0,0,1-6,4,21.87,21.87,0,0,1-15.65,0,17.65,17.65,0,0,1-6.05-4,17.83,17.83,0,0,1-3.91-6.13,22,22,0,0,1,0-15.39,17.93,17.93,0,0,1,3.91-6.13,17.65,17.65,0,0,1,6.05-4,20.28,20.28,0,0,1,7.81-1.45,21,21,0,0,1,5.41.67,19,19,0,0,1,4.66,1.88,17.53,17.53,0,0,1,3.8,2.95,18.43,18.43,0,0,1,2.86,3.88,19,19,0,0,1,1.79,4.66A22,22,0,0,1,305.28,160.07Zm-7.19,0a17.33,17.33,0,0,0-.84-5.58,11.92,11.92,0,0,0-2.38-4.2,10.2,10.2,0,0,0-3.75-2.64,14.12,14.12,0,0,0-10,0,10.35,10.35,0,0,0-3.76,2.64,11.79,11.79,0,0,0-2.39,4.2,19,19,0,0,0,0,11.16,11.48,11.48,0,0,0,2.39,4.18,10.54,10.54,0,0,0,3.76,2.63,14.12,14.12,0,0,0,10,0,10.26,10.26,0,0,0,3.75-2.63,11.9,11.9,0,0,0,2.34-4.14A17.29,17.29,0,0,0,298.09,160.07Z"/><path class="cls-1" d="M360.38,160.07a20.81,20.81,0,0,1-1.38,7.69,17.85,17.85,0,0,1-3.88,6.13,17.36,17.36,0,0,1-6,4,21.87,21.87,0,0,1-15.65,0,17.65,17.65,0,0,1-6.05-4,17.83,17.83,0,0,1-3.91-6.13,22,22,0,0,1,0-15.39,17.93,17.93,0,0,1,3.91-6.13,17.65,17.65,0,0,1,6.05-4,20.28,20.28,0,0,1,7.81-1.45,21,21,0,0,1,5.41.67,19,19,0,0,1,4.66,1.88,17.3,17.3,0,0,1,3.8,2.95,18.43,18.43,0,0,1,2.86,3.88,19,19,0,0,1,1.79,4.66A22,22,0,0,1,360.38,160.07Zm-7.19,0a17.33,17.33,0,0,0-.84-5.58,11.92,11.92,0,0,0-2.38-4.2,10.22,10.22,0,0,0-3.76-2.6,14.12,14.12,0,0,0-10,0,10.35,10.35,0,0,0-3.76,2.64,11.79,11.79,0,0,0-2.39,4.2,19,19,0,0,0,0,11.16,11.48,11.48,0,0,0,2.39,4.18,10.54,10.54,0,0,0,3.76,2.63,14.12,14.12,0,0,0,10,0,10.26,10.26,0,0,0,3.75-2.63,11.83,11.83,0,0,0,2.38-4.18,17.28,17.28,0,0,0,.87-5.62Z"/><path class="cls-1" d="M386.46,157h1.65a4.16,4.16,0,0,0,1.64-.27,2.94,2.94,0,0,0,1.13-.88l10.43-13.17a3.58,3.58,0,0,1,1.37-1.16,4.39,4.39,0,0,1,1.82-.33h6.06l-12.73,15.71a7.08,7.08,0,0,1-2.32,2,5.51,5.51,0,0,1,1.55.87,7.15,7.15,0,0,1,1.32,1.48L411.5,179h-6.19a3.77,3.77,0,0,1-1.87-.36,3,3,0,0,1-1-1l-10.69-14a2.88,2.88,0,0,0-1.16-1,4.81,4.81,0,0,0-1.88-.29h-2.22v16.63h-7v-37.8h7Z"/><path class="cls-1" d="M467.8,164.33V179h-7V164.33L447,141.17h6.19a2.23,2.23,0,0,1,1.45.44,3.66,3.66,0,0,1,.9,1.13l6.9,12.62c.4.75.76,1.46,1.06,2.12s.58,1.32.82,2c.23-.67.49-1.33.79-2s.63-1.37,1-2.12L473,142.74a3.34,3.34,0,0,1,.87-1.07,2.11,2.11,0,0,1,1.46-.5h6.22Z"/><path class="cls-1" d="M532.21,160.07a21.25,21.25,0,0,1-1.37,7.69,18,18,0,0,1-3.89,6.13,17.36,17.36,0,0,1-6,4,21.9,21.9,0,0,1-15.66,0,17.74,17.74,0,0,1-6-4,17.93,17.93,0,0,1-3.91-6.13,22,22,0,0,1,0-15.39,18.23,18.23,0,0,1,3.91-6.13,17.84,17.84,0,0,1,6-4,20.28,20.28,0,0,1,7.81-1.45,21.07,21.07,0,0,1,5.42.67,19,19,0,0,1,4.65,1.88,17.3,17.3,0,0,1,3.8,2.95,18.43,18.43,0,0,1,2.86,3.88,19,19,0,0,1,1.79,4.66A22.05,22.05,0,0,1,532.21,160.07Zm-7.19,0a17.33,17.33,0,0,0-.84-5.58,11.92,11.92,0,0,0-2.38-4.2,10,10,0,0,0-3.75-2.64,14.09,14.09,0,0,0-9.95,0,10.27,10.27,0,0,0-3.77,2.64,11.79,11.79,0,0,0-2.39,4.2,19,19,0,0,0,0,11.16,11.71,11.71,0,0,0,2.39,4.18,10.25,10.25,0,0,0,3.77,2.63,14.09,14.09,0,0,0,9.95,0,10.17,10.17,0,0,0,3.75-2.63,11.54,11.54,0,0,0,2.38-4.18,17.29,17.29,0,0,0,.79-5.58Z"/><path class="cls-1" d="M566.43,173.29a9.23,9.23,0,0,0,3.64-.68,7.45,7.45,0,0,0,2.71-1.9,8.56,8.56,0,0,0,1.68-3,12.15,12.15,0,0,0,.59-3.92V141.17h7v22.64A17.65,17.65,0,0,1,581,170a14.51,14.51,0,0,1-3.11,4.94,14,14,0,0,1-4.93,3.24,17.34,17.34,0,0,1-6.53,1.16,17.58,17.58,0,0,1-6.57-1.16,14,14,0,0,1-4.92-3.24A14.12,14.12,0,0,1,551.8,170a17.4,17.4,0,0,1-1.09-6.23V141.17h7v22.61a12.15,12.15,0,0,0,.59,3.92,8.28,8.28,0,0,0,1.7,3,7.45,7.45,0,0,0,2.72,1.92A9.08,9.08,0,0,0,566.43,173.29Z"/><path class="cls-1" d="M632.4,179h-6.35a2.81,2.81,0,0,1-2.62-1.41l-7.94-12.11a2.82,2.82,0,0,0-1-1,3.46,3.46,0,0,0-1.59-.29h-3v14.77h-7v-37.8h11.51a23.39,23.39,0,0,1,6.61.8,12.58,12.58,0,0,1,4.52,2.23,8.89,8.89,0,0,1,2.6,3.44,12,12,0,0,1,.27,8,10.33,10.33,0,0,1-1.62,3.08,10.81,10.81,0,0,1-2.61,2.44,13.26,13.26,0,0,1-3.54,1.64,6.73,6.73,0,0,1,2.3,2.2Zm-18.09-19.82a11,11,0,0,0,3.46-.49,6.53,6.53,0,0,0,2.43-1.38,5.51,5.51,0,0,0,1.43-2.07,7.21,7.21,0,0,0,.47-2.64,5.35,5.35,0,0,0-1.9-4.42q-1.89-1.54-5.79-1.54h-4.49v12.54Z"/><path class="cls-1" d="M699.73,147h-11.4v32h-7V147H669.91v-5.78h29.82Z"/><path class="cls-1" d="M747.07,179h-6.35a2.81,2.81,0,0,1-2.62-1.41l-7.89-12.11a2.82,2.82,0,0,0-1-1,3.45,3.45,0,0,0-1.58-.29h-3v14.77h-7v-37.8h11.53a23.29,23.29,0,0,1,6.59.8,12.63,12.63,0,0,1,4.53,2.23,8.89,8.89,0,0,1,2.6,3.44,11.43,11.43,0,0,1,.83,4.4,11.3,11.3,0,0,1-.56,3.61,10.33,10.33,0,0,1-1.62,3.08,10.81,10.81,0,0,1-2.61,2.44,13.26,13.26,0,0,1-3.54,1.64,6.65,6.65,0,0,1,1.25.93,6.83,6.83,0,0,1,1,1.27ZM729,159.15a11,11,0,0,0,3.46-.49,6.65,6.65,0,0,0,2.44-1.38,5.48,5.48,0,0,0,1.42-2.07,7.21,7.21,0,0,0,.47-2.64,5.37,5.37,0,0,0-1.89-4.42q-1.9-1.54-5.79-1.54h-4.5v12.54Z"/><path class="cls-1" d="M771.09,179H764v-37.8h7.06Z"/><path class="cls-1" d="M804.68,141.17a21.74,21.74,0,0,1,6.56.89,12.72,12.72,0,0,1,4.57,2.48,9.76,9.76,0,0,1,2.68,3.82,13,13,0,0,1,.88,4.86,13.35,13.35,0,0,1-.92,5,10.28,10.28,0,0,1-2.74,3.93,12.7,12.7,0,0,1-4.59,2.57,20.64,20.64,0,0,1-6.44.91h-5.26v13.31h-7v-37.8Zm0,19a10.7,10.7,0,0,0,3.37-.48,6.4,6.4,0,0,0,2.39-1.39,5.71,5.71,0,0,0,1.43-2.19,8.62,8.62,0,0,0,.47-2.89,7.8,7.8,0,0,0-.47-2.75,5.55,5.55,0,0,0-1.42-2.09,6.51,6.51,0,0,0-2.37-1.32,11.47,11.47,0,0,0-3.4-.45h-5.26v13.56Z"/><path class="cls-1" d="M868.77,179h-7.06v-37.8h7.06Z"/><path class="cls-1" d="M921.93,141.17V179h-3.6a2.83,2.83,0,0,1-2.49-1.21l-19.73-25.19c.1,1.15.16,2.21.16,3.19V179h-6.2v-37.8h3.69a5,5,0,0,1,.77,0,1.85,1.85,0,0,1,.57.15,1.9,1.9,0,0,1,.49.35,4.78,4.78,0,0,1,.52.58l19.81,25.31c0-.61-.09-1.22-.13-1.81s0-1.14,0-1.64v-23Z"/><path class="cls-1" d="M999.41,179H994a2.35,2.35,0,0,1-1.49-.46,2.85,2.85,0,0,1-.86-1.14l-2.82-7.71H973.14l-2.82,7.71a2.51,2.51,0,0,1-.81,1.1,2.24,2.24,0,0,1-1.49.5h-5.49l14.87-37.8h7.16ZM987,164.69l-4.6-12.57c-.22-.56-.46-1.22-.7-2s-.49-1.59-.73-2.48c-.23.89-.47,1.72-.71,2.5s-.48,1.45-.71,2L975,164.69Z"/><path class="cls-1" d="M1081,141.17V179h-6.2V154.55c0-1,0-2,.16-3.16l-11.42,21.46a2.63,2.63,0,0,1-2.49,1.54h-1a2.63,2.63,0,0,1-2.48-1.54L1046,151.31c.06.58.1,1.14.14,1.7s0,1.07,0,1.54V179h-6.2v-37.8h6.12a2.15,2.15,0,0,1,.61.13,1.31,1.31,0,0,1,.5.34,2.65,2.65,0,0,1,.43.62l11.32,21c.3.56.57,1.14.82,1.73s.5,1.2.75,1.83c.24-.65.49-1.27.75-1.87s.54-1.18.84-1.74l11.16-20.94a2.52,2.52,0,0,1,.45-.62,1.35,1.35,0,0,1,.51-.34,1.8,1.8,0,0,1,.61-.13H1081Z"/><path class="cls-1" d="M1138.31,160.07a21.25,21.25,0,0,1-1.37,7.69,18,18,0,0,1-3.89,6.13,17.36,17.36,0,0,1-6,4,21.9,21.9,0,0,1-15.66,0,17.65,17.65,0,0,1-6.05-4,18.23,18.23,0,0,1-3.91-6.13,22.14,22.14,0,0,1,0-15.39,18.33,18.33,0,0,1,3.91-6.13,17.65,17.65,0,0,1,6.05-4,20.33,20.33,0,0,1,7.82-1.45,21,21,0,0,1,5.41.67,19,19,0,0,1,4.65,1.88,17.3,17.3,0,0,1,3.8,2.95,17.84,17.84,0,0,1,2.86,3.88,19,19,0,0,1,1.79,4.66A22.05,22.05,0,0,1,1138.31,160.07Zm-7.19,0a17.06,17.06,0,0,0-.84-5.58,12,12,0,0,0-2.37-4.2,10.12,10.12,0,0,0-3.76-2.64,14,14,0,0,0-10,0,10.27,10.27,0,0,0-3.77,2.64,11.79,11.79,0,0,0-2.39,4.2,19,19,0,0,0,0,11.16,11.71,11.71,0,0,0,2.39,4.18,10.25,10.25,0,0,0,3.77,2.63,14,14,0,0,0,10,0,10.21,10.21,0,0,0,3.76-2.63,11.74,11.74,0,0,0,2.37-4.18A17.33,17.33,0,0,0,1131.12,160.07Z"/><path class="cls-1" d="M1198.35,141.17V179h-6.2V154.55c0-1,.06-2,.16-3.16l-11.42,21.46a2.63,2.63,0,0,1-2.48,1.54h-1a2.63,2.63,0,0,1-2.48-1.54l-11.55-21.54c0,.58.09,1.14.13,1.7s0,1.07,0,1.54V179h-6.2v-37.8h6.12a1.8,1.8,0,0,1,.61.13,1.31,1.31,0,0,1,.5.34,2.65,2.65,0,0,1,.43.62l11.32,21c.3.56.57,1.14.82,1.73s.5,1.2.75,1.83c.24-.65.5-1.27.76-1.87s.54-1.18.83-1.74l11.16-20.94a2.52,2.52,0,0,1,.45-.62,1.47,1.47,0,0,1,.51-.34,2.15,2.15,0,0,1,.61-.13h6.17Z"/><path class="cls-1" d="M1226.68,146.76v10.49h13.23v5.44h-13.23v10.69h16.78V179h-23.83V141.2h23.83v5.59Z"/><path class="cls-1" d="M1294.41,141.17V179h-3.61a2.81,2.81,0,0,1-2.48-1.21l-19.74-25.19c.11,1.15.16,2.21.16,3.19V179h-6.19v-37.8h3.66a5,5,0,0,1,.77,0,1.91,1.91,0,0,1,.58.15,1.85,1.85,0,0,1,.48.35,4.78,4.78,0,0,1,.52.58l19.82,25.31c-.06-.61-.1-1.22-.13-1.81s-.06-1.14-.06-1.64v-23Z"/><path class="cls-1" d="M1342.08,147h-11.39v32h-7V147h-11.4v-5.78h29.82Z"/><path class="cls-1" d="M172,0H0V178.9H178.9V0Zm0,172H6.89V6.89H172Z"/><path class="cls-1" d="M49,89.44a31,31,0,0,1-1.07,8.62,17.81,17.81,0,0,1-3,6,11.88,11.88,0,0,1-4.45,3.56,13.83,13.83,0,0,1-11.1,0,11.69,11.69,0,0,1-4.42-3.56,17.69,17.69,0,0,1-2.91-6,35.66,35.66,0,0,1,0-17.24,17.69,17.69,0,0,1,2.91-6,11.67,11.67,0,0,1,4.42-3.55,13.83,13.83,0,0,1,11.1,0,11.86,11.86,0,0,1,4.45,3.55,17.81,17.81,0,0,1,3,6A31,31,0,0,1,49,89.44Zm-7.45,0a32.85,32.85,0,0,0-.56-6.64,13.79,13.79,0,0,0-1.48-4.13A5.1,5.1,0,0,0,34.91,76a5.25,5.25,0,0,0-2.42.6,5.43,5.43,0,0,0-2.06,2.14A13.46,13.46,0,0,0,29,82.82a40.66,40.66,0,0,0,0,13.3,13.73,13.73,0,0,0,1.45,4.13,5.45,5.45,0,0,0,2.06,2.12,5.25,5.25,0,0,0,2.42.6,5.1,5.1,0,0,0,4.55-2.72,13.79,13.79,0,0,0,1.48-4.13A33.24,33.24,0,0,0,41.5,89.44Z"/><path class="cls-1" d="M80.84,89.44a30.61,30.61,0,0,1-1.08,8.62,17.45,17.45,0,0,1-3,6,11.74,11.74,0,0,1-4.46,3.56,13.81,13.81,0,0,1-11.09,0,11.69,11.69,0,0,1-4.42-3.56,17.69,17.69,0,0,1-2.91-6,35.66,35.66,0,0,1,0-17.24,17.69,17.69,0,0,1,2.91-6,11.67,11.67,0,0,1,4.42-3.55,13.81,13.81,0,0,1,11.09,0,11.87,11.87,0,0,1,4.46,3.55,17.81,17.81,0,0,1,3,6A30.61,30.61,0,0,1,80.84,89.44Zm-7.45,0a32.15,32.15,0,0,0-.57-6.64,13.5,13.5,0,0,0-1.47-4.13A5.1,5.1,0,0,0,66.8,76a5.25,5.25,0,0,0-2.42.6,5.45,5.45,0,0,0-2.06,2.12,13.46,13.46,0,0,0-1.45,4.13,40.66,40.66,0,0,0,0,13.3,13.73,13.73,0,0,0,1.45,4.13,5.45,5.45,0,0,0,2.06,2.12,5.25,5.25,0,0,0,2.42.6,5.1,5.1,0,0,0,4.55-2.72,13.5,13.5,0,0,0,1.47-4.13,32.34,32.34,0,0,0,.57-6.66Z"/><path class="cls-1" d="M86.14,86.33a4.14,4.14,0,0,1,2.58-3.86,4.2,4.2,0,0,1,1.68-.33,4.31,4.31,0,0,1,3,1.22,4,4,0,0,1,.91,1.33,4.39,4.39,0,0,1,.32,1.64A4.2,4.2,0,0,1,94.34,88a3.9,3.9,0,0,1-.91,1.32,4,4,0,0,1-1.35.88,4.63,4.63,0,0,1-1.68.31,4.39,4.39,0,0,1-1.68-.31,4,4,0,0,1-1.35-.88,4.11,4.11,0,0,1-1.23-3Zm0,18.29a4.13,4.13,0,0,1,.33-1.63,4.24,4.24,0,0,1,3.93-2.55,4.38,4.38,0,0,1,1.68.33,4.14,4.14,0,0,1,1.35.88,4.08,4.08,0,0,1,.91,1.34,4.33,4.33,0,0,1,0,3.28,4.16,4.16,0,0,1-2.26,2.2,4.85,4.85,0,0,1-1.68.31,4.63,4.63,0,0,1-1.68-.31,4.14,4.14,0,0,1-1.35-.88,4.12,4.12,0,0,1-1.23-3Z"/><path class="cls-1" d="M127.94,89.44a30.61,30.61,0,0,1-1.08,8.62,17.45,17.45,0,0,1-3,6,11.74,11.74,0,0,1-4.46,3.56,13.81,13.81,0,0,1-11.09,0,11.69,11.69,0,0,1-4.42-3.56,17.69,17.69,0,0,1-2.91-6,35.66,35.66,0,0,1,0-17.24,17.69,17.69,0,0,1,2.91-6,11.67,11.67,0,0,1,4.42-3.55,13.81,13.81,0,0,1,11.09,0,11.87,11.87,0,0,1,4.46,3.55,17.81,17.81,0,0,1,3,6A30.61,30.61,0,0,1,127.94,89.44Zm-7.45,0a32.15,32.15,0,0,0-.57-6.64,13.5,13.5,0,0,0-1.47-4.13A5.1,5.1,0,0,0,113.9,76a5.25,5.25,0,0,0-2.42.6,5.45,5.45,0,0,0-2.06,2.12A13.46,13.46,0,0,0,108,82.8a40.66,40.66,0,0,0,0,13.3,13.73,13.73,0,0,0,1.45,4.13,5.45,5.45,0,0,0,2.06,2.12,5.25,5.25,0,0,0,2.42.6,5.1,5.1,0,0,0,4.55-2.72,13.5,13.5,0,0,0,1.47-4.13A32.34,32.34,0,0,0,120.49,89.44Z"/><path class="cls-1" d="M157.92,103.11v5.3H136.64v-5.3h7.57V81c0-.47,0-1,.08-1.44l-5,4.13a2.27,2.27,0,0,1-1.94.49,2.09,2.09,0,0,1-.79-.32,2,2,0,0,1-.52-.45l-2.28-3.06,11.66-9.88h5.94v32.65Z"/></g></g></svg>